<svg xmlns="http://www.w3.org/2000/svg" version="1.1" xmlns:xlink="http://www.w3.org/1999/xlink" xmlns:svgjs="http://svgjs.com/svgjs" width="1440" height="560" preserveAspectRatio="none" viewBox="0 0 1440 560"><g mask="url(&quot;#SvgjsMask1073&quot;)" fill="none"><path d="M1560 560L0 560 L0 288.32Q40.36 256.68, 72 297.04Q119.07 224.11, 192 271.18Q232.82 192, 312 232.82Q406.48 207.3, 432 301.78Q477.38 275.15, 504 320.53Q573.07 269.6, 624 338.67Q697.55 292.22, 744 365.77Q752.58 302.35, 816 310.93Q824.1 247.03, 888 255.13Q936.62 183.75, 1008 232.37Q1085.23 189.6, 1128 266.83Q1230.17 249, 1248 351.17Q1273.88 305.06, 1320 330.94Q1335.41 226.35, 1440 241.76Q1513.49 195.25, 1560 268.73z" fill="rgba(159, 245, 229, 1)"></path><path d="M1488 560L0 560 L0 486.4Q-38.76 375.63, 72 336.87Q161.44 306.31, 192 395.76Q284.45 368.21, 312 460.66Q361.67 438.33, 384 488Q388.96 420.96, 456 425.92Q485.46 335.38, 576 364.85Q647.49 316.34, 696 387.83Q732 303.83, 816 339.84Q869.88 321.71, 888 375.59Q974.25 341.84, 1008 428.09Q1032.96 381.05, 1080 406.02Q1132.41 386.43, 1152 438.84Q1193.09 407.93, 1224 449.02Q1240.98 346, 1344 362.97Q1372.74 319.72, 1416 348.46Q1478.14 338.61, 1488 400.75z" fill="rgba(240, 216, 134, 1)"></path><path d="M1464 560L0 560 L0 455.3Q66.46 449.76, 72 516.23Q83.4 455.63, 144 467.04Q171.54 422.58, 216 450.11Q268.76 430.88, 288 483.64Q381.39 457.03, 408 550.43Q418.76 441.19, 528 451.95Q586.74 390.69, 648 449.43Q717.15 398.58, 768 467.73Q837.72 417.45, 888 487.16Q989.72 468.88, 1008 570.6Q1016.82 507.42, 1080 516.24Q1106.59 422.83, 1200 449.42Q1242.74 420.17, 1272 462.91Q1343.9 414.81, 1392 486.71Q1455.79 478.5, 1464 542.28z" fill="rgba(237, 137, 240, 1)"></path></g><defs><mask id="SvgjsMask1073"><rect width="1440" height="560" fill="#ffffff"></rect></mask></defs></svg>