<svg xmlns="http://www.w3.org/2000/svg" version="1.1" xmlns:xlink="http://www.w3.org/1999/xlink" xmlns:svgjs="http://svgjs.com/svgjs" width="1440" height="560" preserveAspectRatio="none" viewBox="0 0 1440 560"><g mask="url(&quot;#SvgjsMask1009&quot;)" fill="none"><path d="M537.47 544.38 a39.32 39.32 0 1 0 78.64 0 a39.32 39.32 0 1 0 -78.64 0z" stroke="rgba(159, 245, 229, 1)"></path><path d="M1136.64 47.58 a13.46 13.46 0 1 0 26.92 0 a13.46 13.46 0 1 0 -26.92 0z" fill="rgba(240, 216, 134, 1)"></path><path d="M460.46 408.97L509.35 408.97L509.35 444.64L460.46 444.64z" stroke="rgba(240, 216, 134, 1)"></path><path d="M29.44 430.64L85.23 430.64L85.23 486.43L29.44 486.43z" stroke="rgba(237, 137, 240, 1)"></path><path d="M1181.55 535.74L1190.5 535.74L1190.5 550.38L1181.55 550.38z" stroke="rgba(159, 245, 229, 1)"></path><path d="M430.79 330.03 a54.08 54.08 0 1 0 108.16 0 a54.08 54.08 0 1 0 -108.16 0z" fill="rgba(159, 245, 229, 1)"></path><path d="M384.96 99.11 a4.1 4.1 0 1 0 8.2 0 a4.1 4.1 0 1 0 -8.2 0z" stroke="rgba(237, 137, 240, 1)"></path><path d="M142.58 415.14L190.26 415.14L190.26 470.2L142.58 470.2z" fill="rgba(240, 216, 134, 1)"></path><path d="M136.53 82.69 a35.2 35.2 0 1 0 70.4 0 a35.2 35.2 0 1 0 -70.4 0z" stroke="rgba(240, 216, 134, 1)"></path><path d="M990.52 356.65L1023.86 356.65L1023.86 389.99L990.52 389.99z" fill="rgba(159, 245, 229, 1)"></path><path d="M995.25 486.25a20.31 20.31 0 1 0-17.45-36.69z" stroke="rgba(240, 216, 134, 1)"></path><path d="M802.43 449.97L806.65 449.97L806.65 454.19L802.43 454.19z" stroke="rgba(237, 137, 240, 1)"></path><path d="M197.85 501.34 a17.03 17.03 0 1 0 34.06 0 a17.03 17.03 0 1 0 -34.06 0z" stroke="rgba(237, 137, 240, 1)"></path><path d="M921.9 41.98L936.33 41.98L936.33 56.41L921.9 56.41z" fill="rgba(240, 216, 134, 1)"></path><path d="M1113.44 490.1 a46.37 46.37 0 1 0 92.74 0 a46.37 46.37 0 1 0 -92.74 0z" fill="rgba(237, 137, 240, 1)"></path><path d="M943.69 451.57 a20.2 20.2 0 1 0 40.4 0 a20.2 20.2 0 1 0 -40.4 0z" stroke="rgba(159, 245, 229, 1)"></path><path d="M21.05 323.67L21.2 323.67L21.2 351.67L21.05 351.67z" stroke="rgba(159, 245, 229, 1)"></path><path d="M800.66 492.28 a8.72 8.72 0 1 0 17.44 0 a8.72 8.72 0 1 0 -17.44 0z" fill="rgba(237, 137, 240, 1)"></path><path d="M306.12 279L341.23 279L341.23 314.11L306.12 314.11z" fill="rgba(240, 216, 134, 1)"></path><path d="M1239.27 397.57L1269.4 397.57L1269.4 427.7L1239.27 427.7z" stroke="rgba(237, 137, 240, 1)"></path><path d="M484.24 24.52L515.72 24.52L515.72 61.13L484.24 61.13z" fill="rgba(240, 216, 134, 1)"></path><path d="M1262.34 178.67L1291.37 178.67L1291.37 207.7L1262.34 207.7z" fill="rgba(159, 245, 229, 1)"></path><path d="M1420.71 179.29L1455.44 179.29L1455.44 214.02L1420.71 214.02z" fill="rgba(240, 216, 134, 1)"></path><path d="M412.68 203.55L426.6 203.55L426.6 217.47L412.68 217.47z" stroke="rgba(237, 137, 240, 1)"></path><path d="M586.8 324.34L593.88 324.34L593.88 371.61L586.8 371.61z" stroke="rgba(237, 137, 240, 1)"></path><path d="M536.19 83.35 a48.93 48.93 0 1 0 97.86 0 a48.93 48.93 0 1 0 -97.86 0z" stroke="rgba(159, 245, 229, 1)"></path><path d="M970.42 60.78L984.7 60.78L984.7 75.06L970.42 75.06z" stroke="rgba(237, 137, 240, 1)"></path><path d="M794.82 163.02a7.51 7.51 0 1 0 14.73-2.94z" stroke="rgba(237, 137, 240, 1)"></path><path d="M1228.42 110.91 a21.26 21.26 0 1 0 42.52 0 a21.26 21.26 0 1 0 -42.52 0z" fill="rgba(159, 245, 229, 1)"></path><path d="M211.04 156.39 a41.98 41.98 0 1 0 83.96 0 a41.98 41.98 0 1 0 -83.96 0z" stroke="rgba(237, 137, 240, 1)"></path><path d="M1191.63 77.08a0.16 0.16 0 1 0 0.31 0.08z" stroke="rgba(159, 245, 229, 1)"></path><path d="M1262.22 317.11L1279.3 317.11L1279.3 356.62L1262.22 356.62z" stroke="rgba(240, 216, 134, 1)"></path><path d="M1296.01 213.38 a22.26 22.26 0 1 0 44.52 0 a22.26 22.26 0 1 0 -44.52 0z" fill="rgba(237, 137, 240, 1)"></path></g><defs><mask id="SvgjsMask1009"><rect width="1440" height="560" fill="#ffffff"></rect></mask></defs></svg>